# xmcd
#
# Track frame offsets:
#	150
#	10323
#	17346
#	26544
#	34017
#	44340
#	51813
#	63261
#	72609
#	80757
#	89580
#	98853
#	107976
#	117024
#	130497
#
# Disc length: 1833 seconds
#
# Revision: 0
# Processed by: cddbd v1.5.1PL2 Copyright (c) Steve Scherf et al.
# Submitted via: audiograbber 1.83.01
#
DISCID=c907270f
DTITLE=Adam Green - Jacket full of Danger
DYEAR=2006
DGENRE=Bluegrass
TTITLE0=Adam Green - Pay the toll
TTITLE1=Adam Green - Hollywood Bowl
TTITLE2=Adam Green - Vultures
TTITLE3=Adam Green - Novotel
TTITLE4=Adam Green - Party line
TTITLE5=Adam Green - Hey dude
TTITLE6=Adam Green - Nat King Cole
TTITLE7=Adam Green - Birds
TTITLE8=Adam Green - Animal dreams
TTITLE9=Adam Green - Cast a shadow
TTITLE10=Adam Green - Drugs
TTITLE11=Adam Green - Jolly good
TTITLE12=Adam Green - Watching old movies
TTITLE13=Adam Green - White women
TTITLE14=Adam Green - Hairy women
EXTD=
EXTT0=
EXTT1=
EXTT2=
EXTT3=
EXTT4=
EXTT5=
EXTT6=
EXTT7=
EXTT8=
EXTT9=
EXTT10=
EXTT11=
EXTT12=
EXTT13=
EXTT14=
PLAYORDER=
